<svg xmlns="http://www.w3.org/2000/svg" viewBox="0 0 100 100" fill="none">
  <defs>
    <linearGradient id="rangerGradient" x1="0%" y1="0%" x2="100%" y2="100%">
      <stop offset="0%" style="stop-color:#191947;stop-opacity:1" />
      <stop offset="50%" style="stop-color:#2d2d7a;stop-opacity:1" />
      <stop offset="100%" style="stop-color:#4040a0;stop-opacity:1" />
    </linearGradient>
    <linearGradient id="accentGradient" x1="0%" y1="0%" x2="100%" y2="100%">
      <stop offset="0%" style="stop-color:#60a5fa;stop-opacity:1" />
      <stop offset="100%" style="stop-color:#3b82f6;stop-opacity:1" />
    </linearGradient>
  </defs>
  
  <!-- Background circle -->
  <circle cx="50" cy="50" r="48" fill="url(#rangerGradient)" stroke="url(#accentGradient)" stroke-width="2"/>
  
  <!-- Stylized "R" letter -->
  <path d="M30 25 L30 75 L38 75 L38 55 L50 55 L62 75 L72 75 L58 52 C64 50 68 44 68 37 C68 28 60 25 50 25 Z M38 32 L50 32 C56 32 60 34 60 37 C60 40 56 48 50 48 L38 48 Z" 
        fill="url(#accentGradient)"/>
  
  <!-- Accent dots representing AI/connectivity -->
  <circle cx="75" cy="28" r="4" fill="url(#accentGradient)" opacity="0.8"/>
  <circle cx="82" cy="38" r="3" fill="url(#accentGradient)" opacity="0.6"/>
  <circle cx="85" cy="50" r="2" fill="url(#accentGradient)" opacity="0.4"/>
</svg>
